HIERARCHY
ROOT Hips
{
	OFFSET	0.00	0.00	0.00
	CHANNELS 6 Xposition Yposition Zposition Zrotation Xrotation Yrotation
	JOINT LeftHip
	{
		OFFSET	 3.430000	 0.000000	 0.000000
		CHANNELS 3 Zrotation Xrotation Yrotation
		JOINT LeftKnee
		{
			OFFSET	 0.000000	-18.469999	 0.000000
			CHANNELS 3 Zrotation Xrotation Yrotation
			JOINT LeftAnkle
			{
				OFFSET	 0.000000	-17.950001	 0.000000
				CHANNELS 3 Zrotation Xrotation Yrotation
				End Site 
				{
					OFFSET	 0.000000	-3.119996	 0.000000
				}
			}
		}
	}
	JOINT RightHip
	{
		OFFSET	-3.430000	 0.000000	 0.000000
		CHANNELS 3 Zrotation Xrotation Yrotation
		JOINT RightKnee
		{
			OFFSET	 0.000000	-18.809999	 0.000000
			CHANNELS 3 Zrotation Xrotation Yrotation
			JOINT RightAnkle
			{
				OFFSET	 0.000000	-17.570000	 0.000000
				CHANNELS 3 Zrotation Xrotation Yrotation
				End Site 
				{
					OFFSET	 0.000000	-3.250000	 0.000000
				}
			}
		}
	}
	JOINT Chest
	{
		OFFSET	 0.000000	 4.570000	 0.000000
		CHANNELS 3 Zrotation Xrotation Yrotation
		JOINT LeftCollar
		{
			OFFSET	 1.060000	 15.330000	 1.760000
			CHANNELS 3 Zrotation Xrotation Yrotation
			JOINT LeftShoulder
			{
				OFFSET	 5.810000	 0.000000	 0.000000
				CHANNELS 3 Zrotation Xrotation Yrotation
				JOINT LeftElbow
				{
					OFFSET	 0.000000	-12.080000	 0.000000
					CHANNELS 3 Zrotation Xrotation Yrotation
					JOINT LeftWrist
					{
						OFFSET	 0.000000	-9.820000	 0.000000
						CHANNELS 3 Zrotation Xrotation Yrotation
						End Site 
						{
							OFFSET	 0.000000	-7.369996	 0.000000
						}
					}
				}
			}
		}
		JOINT RightCollar
		{
			OFFSET	-1.060000	 15.330000	 1.760000
			CHANNELS 3 Zrotation Xrotation Yrotation
			JOINT RightShoulder
			{
				OFFSET	-6.060000	 0.000000	 0.000000
				CHANNELS 3 Zrotation Xrotation Yrotation
				JOINT RightElbow
				{
					OFFSET	 0.000000	-11.900000	 0.000000
					CHANNELS 3 Zrotation Xrotation Yrotation
					JOINT RightWrist
					{
						OFFSET	 0.000000	-9.520000	 0.000000
						CHANNELS 3 Zrotation Xrotation Yrotation
						End Site 
						{
							OFFSET	 0.000000	-7.140012	 0.000000
						}
					}
				}
			}
		}
		JOINT Neck
		{
			OFFSET	 0.000000	 17.620001	 0.000000
			CHANNELS 3 Zrotation Xrotation Yrotation
			JOINT Head
			{
				OFFSET	 0.000000	 5.190000	 0.000000
				CHANNELS 3 Zrotation Xrotation Yrotation
				End Site 
				{
					OFFSET	 0.000000	 4.140008	 0.000000
				}
			}
		}
	}
}

MOTION
Frames: 26
Frame Time: 0.033333
-25.4223 0.6372 -43.2084 12.8011 -3.75795 77.2497 8.99773 2.40936 6.73798 -1.46337 15.8515 6.477 -5.01542 -2.17809 3.00938 -8.74987 3.04931 -12.433 -1.39237 17.1894 0.624495 8.94474 -10.0768 9.35812 5.99816 19.8032 1.08593 0 0 0 3.85734 -11.923 8.86944 -9.14128 -7.73985 -5.61421 11.7578 -22.9269 -16.2803 0 0 0 -8.36704 -12.3552 -0.46241 9.94024 -11.5086 4.1857 -16.6706 -24.727 28.9738 0 0 0 -1.76279 -0.707801 17.415 
-25.4355 0.6082 -43.2048 12.8546 -3.53587 77.0358 8.64013 2.7016 6.60007 -1.4648 15.3325 6.62583 -4.99289 -1.96615 3.24091 -9.43012 3.70317 -13.3362 -1.385 17.2067 0.801787 8.66945 -10.5 8.82238 5.59224 19.6994 1.20121 0 0 0 4.28424 -12.1909 9.1218 -9.06152 -7.68008 -5.64803 11.7293 -22.9902 -16.0523 0 0 0 -8.02698 -12.0971 -0.13827 9.92315 -11.5919 4.20471 -16.6996 -24.8425 28.6955 0 0 0 -1.90751 -0.489545 17.7803 
-25.4443 0.5889 -43.1849 12.9634 -3.1818 76.8203 8.21519 2.99277 6.5677 -1.45283 14.9126 6.55355 -5.01199 -1.82296 3.56661 -10.0997 4.18322 -14.1802 -1.41897 17.0335 0.805852 8.55408 -10.5608 8.93251 5.05472 19.5102 1.38334 0 0 0 4.77368 -12.3818 9.72902 -9.04977 -7.4944 -5.85105 11.9492 -23.152 -15.3721 0 0 0 -7.71655 -11.7204 0.283307 9.88086 -11.6238 4.18253 -16.5443 -24.8758 28.6819 0 0 0 -2.02532 -0.167785 18.08 
-25.4582 0.5424 -43.1531 13.1427 -2.85507 76.6272 7.7761 3.2811 6.42538 -1.4663 14.5677 6.51998 -5.00431 -1.69677 3.94833 -10.6661 4.50504 -14.8392 -1.4928 16.9048 0.883061 8.48685 -10.5978 9.01828 4.49122 19.2863 1.6015 0 0 0 5.15512 -12.4389 10.3772 -8.98377 -7.36918 -5.82498 12.0029 -23.2772 -15.0419 0 0 0 -7.35864 -11.2114 0.968178 9.80624 -11.49 4.15491 -16.4654 -24.9412 28.5853 0 0 0 -2.07373 0.232892 18.3014 
-25.4833 0.4922 -43.1154 13.3124 -2.42665 76.2271 7.16648 3.76374 6.15553 -1.47826 13.801 6.57152 -5.01575 -1.37536 4.59613 -11.5139 4.91234 -15.3244 -1.47373 16.8928 0.737212 8.0047 -10.7085 8.42048 3.60159 18.9448 1.99649 0 0 0 5.92436 -12.7328 11.7754 -8.77614 -7.08492 -5.81566 11.8248 -23.2394 -14.7916 0 0 0 -6.61958 -10.447 1.95004 9.72017 -11.3097 4.05833 -16.2738 -24.8098 28.3583 0 0 0 -2.19844 0.806249 18.8433 
-25.5109 0.447 -43.0526 13.5509 -1.9414 75.9369 6.59565 4.19143 5.98266 -1.49229 13.3425 6.57297 -5.08295 -1.24138 5.04369 -12.2404 5.54048 -16.0458 -1.50559 16.6426 0.669966 7.52055 -10.7178 7.83247 2.75138 18.6394 2.4086 0 0 0 6.51472 -12.829 13.5026 -8.67216 -6.82477 -5.58409 12.0296 -23.5042 -14.1538 0 0 0 -6.04754 -9.65955 3.40361 9.5775 -10.9841 3.97208 -16.0569 -24.4899 27.767 0 0 0 -2.34058 1.3772 19.1686 
-25.5335 0.3918 -42.9848 13.845 -1.52183 75.7006 6.10167 4.51492 5.87931 -1.48921 13.1013 6.46866 -5.14479 -1.15852 5.45912 -12.7712 6.22431 -16.7 -1.56213 16.2561 0.534156 7.57123 -10.8639 8.00101 1.98493 18.3858 2.82649 0 0 0 6.89866 -12.8292 15.3253 -8.54609 -6.55338 -5.44247 12.3131 -23.7211 -13.2888 0 0 0 -5.61088 -8.89603 5.00253 9.39991 -10.6075 3.86555 -15.8755 -24.0772 26.9539 0 0 0 -2.4293 1.92118 19.3656 
-25.5737 0.344 -42.8844 14.1144 -1.18402 75.5496 5.9111 4.76398 6.18063 -1.50133 13.1393 6.31446 -5.30386 -1.20696 5.379 -13.0124 6.85911 -17.1388 -1.55344 15.3869 0.567336 7.59602 -10.7314 8.30576 1.43737 18.2185 3.30505 0 0 0 6.95527 -12.7081 16.9837 -8.43667 -6.27485 -5.26242 12.6871 -24.0743 -12.4222 0 0 0 -5.40725 -8.27766 6.30919 9.25278 -10.2925 3.76406 -15.7696 -23.794 26.3612 0 0 0 -2.56655 2.30692 19.4117 
-25.6189 0.3139 -42.7689 14.3307 -0.957258 75.5343 5.92624 4.91791 6.59368 -1.46494 13.33 6.03939 -5.52181 -1.31519 5.13976 -12.9443 7.179 -16.9656 -1.54545 14.7155 0.302937 7.45139 -10.4112 8.3122 1.13642 18.1058 3.71499 0 0 0 6.7355 -12.411 18.2892 -8.33467 -6.04368 -5.0972 12.6905 -24.2583 -11.8291 0 0 0 -5.40308 -7.83059 7.20907 9.17945 -10.0729 3.73211 -15.6347 -23.4962 26.149 0 0 0 -2.68773 2.51024 19.3672 
-25.6791 0.2787 -42.6433 14.5126 -0.882673 75.6746 6.11129 4.98034 6.87277 -1.44819 13.6109 5.95306 -5.7249 -1.42002 4.69455 -12.6384 7.57398 -16.6835 -1.54367 14.1084 0.150438 7.23456 -10.2756 7.90559 1.06691 18.1045 3.9832 0 0 0 6.15514 -11.9151 18.8972 -8.19147 -5.96343 -4.83844 12.434 -24.4363 -11.6468 0 0 0 -5.52097 -7.60008 7.87057 9.14294 -9.87957 3.77283 -15.6376 -23.222 25.8275 0 0 0 -2.78528 2.55151 19.2745 
-25.752 0.2712 -42.5153 14.6365 -0.855221 75.9396 6.4125 4.97517 7.19897 -1.40495 13.9526 5.85688 -5.94862 -1.54608 4.07659 -12.2458 8.05022 -16.3674 -1.48855 13.4975 -0.123614 6.99908 -10.1524 7.47997 1.17534 18.1968 4.09691 0 0 0 5.42438 -11.4092 19.1629 -8.15359 -5.81856 -4.75345 12.2384 -24.5486 -11.3363 0 0 0 -5.7665 -7.62193 8.1729 9.13295 -9.84784 3.84311 -15.6402 -22.87 25.525 0 0 0 -2.90482 2.43695 19.1875 
-25.8248 0.2511 -42.3872 14.7734 -0.854007 76.3013 6.71899 4.97386 7.48575 -1.34835 14.2657 5.76391 -6.15192 -1.64451 3.3963 -11.8121 8.59393 -16.2147 -1.44552 12.9178 -0.347905 6.74897 -10.0949 7.07569 1.39584 18.3549 4.09075 0 0 0 4.51958 -10.846 18.6718 -8.0646 -5.71357 -4.72241 11.873 -24.5992 -11.2244 0 0 0 -6.11898 -7.78519 8.07078 9.17046 -9.92738 3.95481 -15.8858 -22.7514 25.0139 0 0 0 -3.03043 2.24329 19.056 
-25.9001 0.2335 -42.2516 14.9225 -0.807048 76.7506 6.99419 4.96306 7.67555 -1.32014 14.5656 5.67837 -6.32971 -1.72623 2.73634 -11.4357 9.15118 -16.1309 -1.38517 12.406 -0.461885 6.4782 -10.0991 6.55551 1.58658 18.4534 4.11271 0 0 0 3.57341 -10.1732 17.7128 -7.94341 -5.66981 -4.79592 11.4537 -24.6106 -11.0447 0 0 0 -6.48316 -7.90544 7.68638 9.19955 -10.0826 4.03908 -16.0788 -22.7695 24.9192 0 0 0 -3.09926 2.12232 18.7919 
-25.9729 0.2109 -42.0984 15.0879 -0.703725 77.3526 7.23238 4.93607 7.77983 -1.26073 14.8132 5.58881 -6.52622 -1.74853 2.00753 -11.1547 9.70168 -16.2571 -1.31404 11.9859 -0.491925 6.23121 -10.1459 6.02709 1.74369 18.5317 4.14888 0 0 0 2.55638 -9.36172 16.5621 -7.8444 -5.62838 -4.80452 10.9813 -24.7754 -11.1687 0 0 0 -6.87432 -7.99654 7.20755 9.26068 -10.2205 4.09712 -16.2138 -22.8296 25.2199 0 0 0 -3.11845 2.0173 18.3682 
-26.0257 0.1858 -41.9779 15.2595 -0.565238 77.9475 7.2806 4.8974 7.50415 -1.2338 14.912 5.5481 -6.60918 -1.67938 1.67562 -11.0116 10.1688 -16.4979 -1.28066 11.7538 -0.521025 6.09518 -10.2448 5.66694 1.78982 18.5505 4.12064 0 0 0 1.70862 -8.55501 15.5035 -7.77032 -5.58748 -4.83442 10.5243 -24.8809 -11.3212 0 0 0 -7.1471 -7.99064 6.91951 9.28962 -10.2426 4.1843 -16.2866 -22.7252 25.3619 0 0 0 -3.06236 2.02563 17.9682 
-26.0709 0.1683 -41.8724 15.4078 -0.372429 78.5335 7.26414 4.84569 7.24503 -1.20168 14.9637 5.54976 -6.68138 -1.56519 1.31129 -10.9216 10.5756 -16.6704 -1.24583 11.5815 -0.576641 5.95336 -10.3601 5.27463 1.7596 18.5538 4.16756 0 0 0 0.924639 -7.80363 14.6592 -7.68567 -5.53925 -4.84588 10.1742 -25.0272 -11.4706 0 0 0 -7.33689 -7.93269 6.80209 9.27447 -10.1854 4.17287 -16.3686 -22.5752 25.2329 0 0 0 -2.9788 2.08279 17.4443 
-26.1035 0.1507 -41.7795 15.5467 -0.150626 79.1413 7.19973 4.81831 7.01722 -1.15576 14.9566 5.54222 -6.7235 -1.44162 0.906287 -10.9069 10.9239 -16.7274 -1.17451 11.4773 -0.634182 5.81405 -10.4924 4.75509 1.70046 18.5 4.37689 0 0 0 0.197156 -7.12488 14.2335 -7.63014 -5.47334 -4.82646 9.84797 -25.1705 -11.7153 0 0 0 -7.4319 -7.76758 6.72912 9.24823 -10.112 4.14926 -16.4503 -22.3951 25.0794 0 0 0 -2.87847 2.16653 16.7306 
-26.1161 0.1356 -41.7041 15.6527 0.0723112 79.713 7.11722 4.79087 6.82466 -1.10477 14.917 5.51997 -6.76314 -1.31495 0.516736 -10.9031 11.2441 -16.7771 -1.11599 11.3671 -0.65046 5.67822 -10.6215 4.21851 1.62852 18.4421 4.70736 0 0 0 -0.399361 -6.52265 14.0572 -7.52463 -5.53412 -4.66459 9.7368 -25.3209 -11.3681 0 0 0 -7.47373 -7.57497 6.63173 9.22506 -10.0422 4.10368 -16.5011 -22.2475 24.991 0 0 0 -2.77323 2.17259 15.8883 
-26.1236 0.123 -41.6388 15.71 0.304577 80.2556 7.01426 4.7394 6.67543 -1.03923 14.8648 5.48686 -6.79317 -1.2051 0.144232 -10.9505 11.4816 -16.8743 -1.06548 11.2913 -0.6303 5.57612 -10.7188 3.73282 1.54362 18.3598 5.04871 0 0 0 -0.818272 -6.04684 14.2093 -7.51055 -5.66778 -4.51331 9.71235 -25.4544 -10.9071 0 0 0 -7.45713 -7.41216 6.61613 9.19417 -10.0094 4.06772 -16.4992 -22.1228 25.0565 0 0 0 -2.68721 2.08826 15.0334 
-26.1211 0.1105 -41.5886 15.7459 0.523145 80.7549 6.89798 4.7014 6.55515 -0.960342 14.7862 5.45465 -6.8195 -1.10249 -0.21834 -10.995 11.6913 -17.0094 -1.05026 11.2228 -0.648603 5.526 -10.8067 3.36596 1.4986 18.3074 5.3123 0 0 0 -1.06314 -5.70924 14.5916 -7.51299 -5.7463 -4.4684 9.80286 -25.6152 -10.446 0 0 0 -7.40141 -7.33652 6.7121 9.19433 -9.97815 4.04793 -16.4883 -22.093 25.2613 0 0 0 -2.65042 1.91858 14.2688 
-26.1136 0.103 -41.561 15.7762 0.727969 81.1533 6.76448 4.68491 6.44743 -0.91 14.7162 5.44027 -6.82433 -1.04506 -0.500883 -11.0507 11.8698 -17.1004 -1.05413 11.165 -0.647964 5.49825 -10.901 3.04856 1.44516 18.2255 5.53898 0 0 0 -1.03286 -5.50371 15.1014 -7.57486 -5.8066 -4.45742 9.86438 -25.7435 -9.99057 0 0 0 -7.29124 -7.29626 6.79417 9.21663 -10.0157 4.10222 -16.4764 -22.103 25.4596 0 0 0 -2.6493 1.68865 13.5404 
-26.1036 0.0929 -41.5308 15.794 0.928646 81.5441 6.60393 4.68217 6.28967 -0.849492 14.6262 5.45943 -6.83422 -0.986515 -0.750211 -11.0998 12.0556 -17.1788 -1.0548 11.1051 -0.660365 5.4612 -10.9944 2.74084 1.39519 18.1177 5.74966 0 0 0 -0.889861 -5.31974 15.6201 -7.59313 -5.89231 -4.44986 9.87456 -25.8545 -9.56888 0 0 0 -7.1385 -7.29131 6.9047 9.23279 -10.135 4.09338 -16.3941 -22.1349 25.757 0 0 0 -2.6356 1.42732 12.7868 
-26.0835 0.0778 -41.5082 15.8014 1.08939 81.9106 6.45909 4.72449 6.08074 -0.819528 14.498 5.46018 -6.81719 -0.962182 -0.898327 -11.1456 12.232 -17.275 -1.05666 11.0558 -0.636921 5.44886 -11.0849 2.45177 1.36838 17.9785 5.86816 0 0 0 -0.457678 -5.25356 16.175 -7.64723 -5.95014 -4.45012 9.93866 -25.8296 -9.09325 0 0 0 -6.93665 -7.36633 7.00419 9.27705 -10.3396 4.14797 -16.2892 -22.2882 26.062 0 0 0 -2.59878 1.12897 12.0499 
-26.0533 0.0703 -41.4982 15.7908 1.20191 82.1799 6.34239 4.75538 5.91273 -0.78625 14.3803 5.42909 -6.81198 -0.943271 -0.946228 -11.1884 12.3572 -17.3967 -1.05046 11.0274 -0.625449 5.45163 -11.1609 2.30206 1.3719 17.8636 5.85751 0 0 0 0.127853 -5.31581 16.6319 -7.67631 -5.99058 -4.41727 9.98916 -25.6913 -8.58407 0 0 0 -6.74816 -7.52893 7.10406 9.33298 -10.5763 4.1781 -16.1797 -22.4984 26.3636 0 0 0 -2.59685 0.827286 11.4893 
-26.0182 0.0678 -41.4932 15.7549 1.29324 82.4 6.26526 4.77107 5.77598 -0.762311 14.264 5.39675 -6.81102 -0.924965 -0.979928 -11.2228 12.4461 -17.5105 -1.04024 11.0105 -0.604528 5.45683 -11.2348 2.17541 1.3987 17.7129 5.77515 0 0 0 0.783858 -5.39109 16.9943 -7.69937 -5.94884 -4.49938 9.86484 -25.5702 -8.6053 0 0 0 -6.55099 -7.7457 7.18812 9.41202 -10.8302 4.22051 -16.0744 -22.7297 26.6813 0 0 0 -2.6055 0.608818 11.0416 
-25.973 0.0703 -41.4957 15.7124 1.36198 82.5598 6.21333 4.81315 5.65792 -0.76898 14.1153 5.35235 -6.80781 -0.895773 -0.966218 -11.2463 12.5194 -17.5982 -1.03769 10.9923 -0.586358 5.47703 -11.3102 2.08317 1.47666 17.4925 5.64021 0 0 0 1.42488 -5.39567 17.2338 -7.68105 -5.8465 -4.58027 9.73799 -25.4313 -8.60105 0 0 0 -6.38677 -7.97932 7.182 9.49944 -11.1007 4.30438 -15.9644 -22.9373 26.9829 0 0 0 -2.6313 0.517578 10.679 
